<svg width="28" height="31" viewBox="0 0 28 31" fill="none" xmlns="http://www.w3.org/2000/svg">
<path d="M21.5078 8.30859C23.0312 8.60156 24.3203 9.42188 25.2578 10.7695C26.1367 12 26.7227 13.5234 27.0156 15.3398C27.3086 17.0391 27.3086 18.7383 26.957 20.3789C26.4883 23.1914 25.5508 25.4766 24.1445 27.3516C22.5039 29.6367 20.3945 30.75 17.8164 30.75C17.2305 30.75 16.5273 30.5742 15.7656 30.1641C15.2969 29.8711 14.7109 29.6953 14.0664 29.6953C13.4805 29.6953 12.8945 29.8711 12.4258 30.1641C11.6641 30.5742 10.9609 30.75 10.375 30.75C7.79688 30.75 5.6875 29.6367 4.04688 27.3516C2.64062 25.4766 1.70312 23.1914 1.23438 20.3789C0.882812 18.7383 0.882812 17.0391 1.17578 15.3398C1.46875 13.5234 2.05469 12 2.93359 10.7695C3.87109 9.42188 5.16016 8.60156 6.68359 8.30859C7.62109 8.19141 8.91016 8.30859 10.5508 8.71875C11.957 9.12891 13.1289 9.59766 14.0664 10.125C15.0625 9.59766 16.2344 9.12891 17.6406 8.71875C19.2812 8.30859 20.5703 8.19141 21.5078 8.30859ZM18.2852 5.90625C17.7578 6.43359 17.0547 6.78516 16.1172 7.01953C15.5312 7.25391 14.8281 7.3125 14.0664 7.3125L13.2461 7.25391C13.1289 6.72656 13.1289 6.08203 13.2461 5.37891C13.3633 3.97266 13.832 2.91797 14.5352 2.15625C15.1211 1.6875 15.8242 1.27734 16.7031 1.04297C17.3477 0.867188 18.0508 0.75 18.7539 0.75L19.6328 0.808594L19.6914 1.6875C19.6914 2.44922 19.6328 3.15234 19.3984 3.73828C19.1641 4.67578 18.8125 5.37891 18.2852 5.90625Z" fill="white"/>
</svg>
